<svg xmlns="http://www.w3.org/2000/svg" xmlns:xlink="http://www.w3.org/1999/xlink" width="500" zoomAndPan="magnify" viewBox="0 0 375 374.999991" height="500" preserveAspectRatio="xMidYMid meet" version="1.2"><defs><clipPath id="1d6ec26470"><path d="M 31.203125 115.511719 L 160.097656 115.511719 L 160.097656 183.773438 L 31.203125 183.773438 Z M 31.203125 115.511719 "/></clipPath><clipPath id="71fab5872b"><path d="M 24.601562 171.691406 L 153.492188 171.691406 L 153.492188 239.929688 L 24.601562 239.929688 Z M 24.601562 171.691406 "/></clipPath></defs><g id="f1729f3da0"><path style=" stroke:none;fill-rule:nonzero;fill:#152c85;fill-opacity:1;" d="M 87.105469 216.320312 L 87.105469 208.828125 C 76.339844 207.144531 70.066406 200.589844 69.316406 191.507812 L 82.613281 191.507812 C 83.644531 196.375 87.386719 199.371094 93.007812 199.371094 C 99.933594 199.371094 102.085938 196.097656 102.085938 192.351562 C 102.085938 187.761719 99.652344 185.515625 91.039062 182.988281 C 75.214844 178.492188 70.628906 172.59375 70.628906 163.886719 C 70.628906 154.429688 77.558594 148.4375 86.453125 146.753906 L 86.453125 140.667969 L 97.5 140.667969 L 97.5 146.660156 C 109.203125 148.4375 113.324219 155.648438 113.980469 162.953125 L 100.683594 162.953125 C 100.027344 160.328125 98.8125 156.117188 91.695312 156.117188 C 85.703125 156.117188 83.921875 159.675781 83.921875 162.578125 C 83.921875 166.601562 86.171875 168.476562 96.1875 171.285156 C 110.140625 175.214844 115.382812 180.835938 115.382812 190.757812 C 115.382812 201.339844 108.546875 207.238281 98.25 208.828125 L 98.25 216.320312 L 87.105469 216.320312 "/><g clip-rule="nonzero" clip-path="url(#1d6ec26470)"><path style=" stroke:none;fill-rule:nonzero;fill:#152c85;fill-opacity:1;" d="M 41.648438 177.101562 C 41.929688 154.527344 57.332031 134.050781 80.226562 128.34375 C 106.109375 121.890625 132.40625 136.601562 140.769531 161.457031 L 132.734375 163.460938 L 152.332031 183.742188 L 160.097656 156.636719 L 151.78125 158.710938 C 141.867188 127.792969 109.429688 109.40625 77.492188 117.367188 C 52.839844 123.515625 35.292969 143.664062 31.230469 167.210938 L 41.648438 177.101562 "/></g><g clip-rule="nonzero" clip-path="url(#71fab5872b)"><path style=" stroke:none;fill-rule:nonzero;fill:#152c85;fill-opacity:1;" d="M 143.054688 178.339844 C 142.769531 200.910156 127.371094 221.386719 104.472656 227.097656 C 78.59375 233.550781 52.296875 218.839844 43.929688 193.984375 L 51.964844 191.980469 L 32.367188 171.695312 L 24.601562 198.804688 L 32.921875 196.730469 C 42.832031 227.648438 75.269531 246.035156 107.210938 238.074219 C 131.863281 231.925781 149.410156 211.777344 153.46875 188.230469 L 143.054688 178.339844 "/></g><g style="fill:#152c85;fill-opacity:1;"><g transform="translate(160.108559, 212.346132)"><path style="stroke:none" d="M 11.171875 0 L 11.171875 -22.265625 L 0.390625 -67.609375 L 13.765625 -67.609375 L 17.546875 -44.703125 L 21.328125 -67.609375 L 34.703125 -67.609375 L 23.921875 -22.265625 L 23.921875 0 Z M 11.171875 0 "/></g></g><g style="fill:#152c85;fill-opacity:1;"><g transform="translate(195.21183, 212.346132)"><path style="stroke:none" d="M 2.984375 -67.609375 L 21.640625 -67.609375 C 26.472656 -67.609375 30.09375 -66.269531 32.5 -63.59375 C 34.914062 -60.914062 36.148438 -56.953125 36.203125 -51.703125 L 36.359375 -20.0625 C 36.410156 -13.40625 35.253906 -8.394531 32.890625 -5.03125 C 30.535156 -1.675781 26.628906 0 21.171875 0 L 2.984375 0 Z M 18.96875 -11.96875 C 21.4375 -11.96875 22.671875 -13.171875 22.671875 -15.578125 L 22.671875 -50.453125 C 22.671875 -51.972656 22.550781 -53.113281 22.3125 -53.875 C 22.070312 -54.632812 21.632812 -55.144531 21 -55.40625 C 20.375 -55.664062 19.410156 -55.796875 18.109375 -55.796875 L 16.609375 -55.796875 L 16.609375 -11.96875 Z M 18.96875 -11.96875 "/></g></g><g style="fill:#152c85;fill-opacity:1;"><g transform="translate(234.014334, 212.346132)"><path style="stroke:none" d="M 2.984375 0 L 2.984375 -67.609375 L 16.921875 -67.609375 L 23.140625 -35.265625 L 23.140625 -67.609375 L 36.203125 -67.609375 L 36.203125 0 L 22.984375 0 L 16.21875 -33.84375 L 16.21875 0 Z M 2.984375 0 "/></g></g><g style="fill:#152c85;fill-opacity:1;"><g transform="translate(273.210361, 212.346132)"><path style="stroke:none" d="M 2.984375 0 L 2.984375 -67.609375 L 30.0625 -67.609375 L 30.0625 -54.546875 L 16.765625 -54.546875 L 16.765625 -41.390625 L 29.515625 -41.390625 L 29.515625 -28.640625 L 16.765625 -28.640625 L 16.765625 -13.140625 L 30.9375 -13.140625 L 30.9375 0 Z M 2.984375 0 "/></g></g><g style="fill:#152c85;fill-opacity:1;"><g transform="translate(305.637594, 212.346132)"><path style="stroke:none" d="M 11.171875 0 L 11.171875 -22.265625 L 0.390625 -67.609375 L 13.765625 -67.609375 L 17.546875 -44.703125 L 21.328125 -67.609375 L 34.703125 -67.609375 L 23.921875 -22.265625 L 23.921875 0 Z M 11.171875 0 "/></g></g><g style="fill:#2c72d4;fill-opacity:1;"><g transform="translate(170.858021, 235.172967)"><path style="stroke:none" d="M 8.390625 0 L 5.015625 0 L 0.25 -14.125 L 3.21875 -14.125 L 6.640625 -3.59375 L 6.890625 -3.59375 L 10.265625 -14.125 L 13.15625 -14.125 Z M 8.390625 0 "/></g></g><g style="fill:#2c72d4;fill-opacity:1;"><g transform="translate(183.45637, 235.172967)"><path style="stroke:none" d="M 10.53125 -4.71875 L 3.6875 -4.71875 C 3.757812 -3.789062 4.019531 -3.113281 4.46875 -2.6875 C 4.914062 -2.269531 5.53125 -2.0625 6.3125 -2.0625 C 6.925781 -2.0625 7.421875 -2.175781 7.796875 -2.40625 C 8.179688 -2.632812 8.488281 -2.984375 8.71875 -3.453125 L 8.921875 -3.453125 L 10.703125 -2.3125 C 10.359375 -1.5625 9.832031 -0.953125 9.125 -0.484375 C 8.425781 -0.0234375 7.488281 0.203125 6.3125 0.203125 C 5.21875 0.203125 4.269531 -0.00390625 3.46875 -0.421875 C 2.664062 -0.835938 2.046875 -1.457031 1.609375 -2.28125 C 1.171875 -3.113281 0.953125 -4.128906 0.953125 -5.328125 C 0.953125 -6.535156 1.179688 -7.550781 1.640625 -8.375 C 2.097656 -9.207031 2.71875 -9.828125 3.5 -10.234375 C 4.28125 -10.648438 5.15625 -10.859375 6.125 -10.859375 C 7.632812 -10.859375 8.785156 -10.457031 9.578125 -9.65625 C 10.378906 -8.863281 10.78125 -7.691406 10.78125 -6.140625 C 10.78125 -5.578125 10.765625 -5.144531 10.734375 -4.84375 Z M 8.234375 -6.453125 C 8.203125 -7.265625 8.007812 -7.851562 7.65625 -8.21875 C 7.3125 -8.59375 6.800781 -8.78125 6.125 -8.78125 C 4.769531 -8.78125 3.972656 -8.003906 3.734375 -6.453125 Z M 8.234375 -6.453125 "/></g></g><g style="fill:#2c72d4;fill-opacity:1;"><g transform="translate(195.040333, 235.172967)"><path style="stroke:none" d="M 1.53125 0 L 1.53125 -14.9375 L 4.21875 -14.9375 L 4.21875 -9.265625 L 4.421875 -9.21875 C 4.773438 -9.738281 5.207031 -10.140625 5.71875 -10.421875 C 6.226562 -10.710938 6.847656 -10.859375 7.578125 -10.859375 C 9.929688 -10.859375 11.109375 -9.523438 11.109375 -6.859375 L 11.109375 0 L 8.4375 0 L 8.4375 -6.515625 C 8.4375 -7.242188 8.289062 -7.769531 8 -8.09375 C 7.707031 -8.425781 7.253906 -8.59375 6.640625 -8.59375 C 5.898438 -8.59375 5.3125 -8.34375 4.875 -7.84375 C 4.4375 -7.34375 4.21875 -6.566406 4.21875 -5.515625 L 4.21875 0 Z M 1.53125 0 "/></g></g><g style="fill:#2c72d4;fill-opacity:1;"><g transform="translate(207.522798, 235.172967)"><path style="stroke:none" d="M 2.875 -11.921875 C 2.382812 -11.921875 1.988281 -12.066406 1.6875 -12.359375 C 1.382812 -12.660156 1.234375 -13.039062 1.234375 -13.5 C 1.234375 -13.957031 1.382812 -14.332031 1.6875 -14.625 C 1.988281 -14.914062 2.382812 -15.0625 2.875 -15.0625 C 3.195312 -15.0625 3.484375 -14.992188 3.734375 -14.859375 C 3.984375 -14.722656 4.175781 -14.535156 4.3125 -14.296875 C 4.445312 -14.066406 4.515625 -13.800781 4.515625 -13.5 C 4.515625 -13.195312 4.445312 -12.925781 4.3125 -12.6875 C 4.175781 -12.445312 3.984375 -12.257812 3.734375 -12.125 C 3.484375 -11.988281 3.195312 -11.921875 2.875 -11.921875 Z M 1.53125 0 L 1.53125 -10.65625 L 4.21875 -10.65625 L 4.21875 0 Z M 1.53125 0 "/></g></g><g style="fill:#2c72d4;fill-opacity:1;"><g transform="translate(213.261639, 235.172967)"><path style="stroke:none" d="M 6.203125 0.203125 C 5.179688 0.203125 4.273438 -0.0078125 3.484375 -0.4375 C 2.691406 -0.863281 2.070312 -1.492188 1.625 -2.328125 C 1.175781 -3.160156 0.953125 -4.160156 0.953125 -5.328125 C 0.953125 -6.492188 1.175781 -7.492188 1.625 -8.328125 C 2.070312 -9.160156 2.6875 -9.789062 3.46875 -10.21875 C 4.25 -10.644531 5.144531 -10.859375 6.15625 -10.859375 C 8.40625 -10.859375 9.847656 -10.039062 10.484375 -8.40625 L 8.640625 -7.09375 L 8.4375 -7.09375 C 8.21875 -7.601562 7.929688 -7.976562 7.578125 -8.21875 C 7.234375 -8.46875 6.757812 -8.59375 6.15625 -8.59375 C 5.382812 -8.59375 4.78125 -8.320312 4.34375 -7.78125 C 3.914062 -7.25 3.703125 -6.429688 3.703125 -5.328125 C 3.703125 -4.234375 3.921875 -3.414062 4.359375 -2.875 C 4.796875 -2.332031 5.410156 -2.0625 6.203125 -2.0625 C 6.785156 -2.0625 7.273438 -2.21875 7.671875 -2.53125 C 8.078125 -2.84375 8.367188 -3.296875 8.546875 -3.890625 L 8.75 -3.90625 L 10.65625 -2.859375 C 10.382812 -1.953125 9.882812 -1.210938 9.15625 -0.640625 C 8.425781 -0.078125 7.441406 0.203125 6.203125 0.203125 Z M 6.203125 0.203125 "/></g></g><g style="fill:#2c72d4;fill-opacity:1;"><g transform="translate(224.246599, 235.172967)"><path style="stroke:none" d="M 4.421875 0.203125 C 3.460938 0.203125 2.726562 -0.0546875 2.21875 -0.578125 C 1.71875 -1.097656 1.46875 -1.882812 1.46875 -2.9375 L 1.46875 -14.9375 L 4.140625 -14.9375 L 4.140625 -3.046875 C 4.140625 -2.390625 4.410156 -2.0625 4.953125 -2.0625 C 5.109375 -2.0625 5.273438 -2.085938 5.453125 -2.140625 L 5.578125 -2.109375 L 5.828125 -0.046875 C 5.679688 0.0234375 5.484375 0.0820312 5.234375 0.125 C 4.992188 0.175781 4.722656 0.203125 4.421875 0.203125 Z M 4.421875 0.203125 "/></g></g><g style="fill:#2c72d4;fill-opacity:1;"><g transform="translate(230.371895, 235.172967)"><path style="stroke:none" d="M 10.53125 -4.71875 L 3.6875 -4.71875 C 3.757812 -3.789062 4.019531 -3.113281 4.46875 -2.6875 C 4.914062 -2.269531 5.53125 -2.0625 6.3125 -2.0625 C 6.925781 -2.0625 7.421875 -2.175781 7.796875 -2.40625 C 8.179688 -2.632812 8.488281 -2.984375 8.71875 -3.453125 L 8.921875 -3.453125 L 10.703125 -2.3125 C 10.359375 -1.5625 9.832031 -0.953125 9.125 -0.484375 C 8.425781 -0.0234375 7.488281 0.203125 6.3125 0.203125 C 5.21875 0.203125 4.269531 -0.00390625 3.46875 -0.421875 C 2.664062 -0.835938 2.046875 -1.457031 1.609375 -2.28125 C 1.171875 -3.113281 0.953125 -4.128906 0.953125 -5.328125 C 0.953125 -6.535156 1.179688 -7.550781 1.640625 -8.375 C 2.097656 -9.207031 2.71875 -9.828125 3.5 -10.234375 C 4.28125 -10.648438 5.15625 -10.859375 6.125 -10.859375 C 7.632812 -10.859375 8.785156 -10.457031 9.578125 -9.65625 C 10.378906 -8.863281 10.78125 -7.691406 10.78125 -6.140625 C 10.78125 -5.578125 10.765625 -5.144531 10.734375 -4.84375 Z M 8.234375 -6.453125 C 8.203125 -7.265625 8.007812 -7.851562 7.65625 -8.21875 C 7.3125 -8.59375 6.800781 -8.78125 6.125 -8.78125 C 4.769531 -8.78125 3.972656 -8.003906 3.734375 -6.453125 Z M 8.234375 -6.453125 "/></g></g><g style="fill:#2c72d4;fill-opacity:1;"><g transform="translate(247.853322, 235.172967)"><path style="stroke:none" d="M 1.828125 0 L 1.828125 -14.125 L 7.5 -14.125 C 8.96875 -14.125 10.070312 -13.785156 10.8125 -13.109375 C 11.550781 -12.441406 11.921875 -11.515625 11.921875 -10.328125 C 11.921875 -9.472656 11.703125 -8.769531 11.265625 -8.21875 C 10.835938 -7.675781 10.191406 -7.257812 9.328125 -6.96875 L 9.328125 -6.765625 C 9.773438 -6.566406 10.132812 -6.273438 10.40625 -5.890625 C 10.675781 -5.515625 10.9375 -4.957031 11.1875 -4.21875 L 12.59375 0 L 9.71875 0 L 8.34375 -4.21875 C 8.195312 -4.644531 8.035156 -4.972656 7.859375 -5.203125 C 7.679688 -5.441406 7.457031 -5.613281 7.1875 -5.71875 C 6.914062 -5.820312 6.5625 -5.875 6.125 -5.875 L 4.625 -5.875 L 4.625 0 Z M 7.171875 -8.09375 C 8.515625 -8.09375 9.1875 -8.722656 9.1875 -9.984375 C 9.1875 -11.265625 8.515625 -11.90625 7.171875 -11.90625 L 4.625 -11.90625 L 4.625 -8.09375 Z M 7.171875 -8.09375 "/></g></g><g style="fill:#2c72d4;fill-opacity:1;"><g transform="translate(260.780198, 235.172967)"><path style="stroke:none" d="M 10.53125 -4.71875 L 3.6875 -4.71875 C 3.757812 -3.789062 4.019531 -3.113281 4.46875 -2.6875 C 4.914062 -2.269531 5.53125 -2.0625 6.3125 -2.0625 C 6.925781 -2.0625 7.421875 -2.175781 7.796875 -2.40625 C 8.179688 -2.632812 8.488281 -2.984375 8.71875 -3.453125 L 8.921875 -3.453125 L 10.703125 -2.3125 C 10.359375 -1.5625 9.832031 -0.953125 9.125 -0.484375 C 8.425781 -0.0234375 7.488281 0.203125 6.3125 0.203125 C 5.21875 0.203125 4.269531 -0.00390625 3.46875 -0.421875 C 2.664062 -0.835938 2.046875 -1.457031 1.609375 -2.28125 C 1.171875 -3.113281 0.953125 -4.128906 0.953125 -5.328125 C 0.953125 -6.535156 1.179688 -7.550781 1.640625 -8.375 C 2.097656 -9.207031 2.71875 -9.828125 3.5 -10.234375 C 4.28125 -10.648438 5.15625 -10.859375 6.125 -10.859375 C 7.632812 -10.859375 8.785156 -10.457031 9.578125 -9.65625 C 10.378906 -8.863281 10.78125 -7.691406 10.78125 -6.140625 C 10.78125 -5.578125 10.765625 -5.144531 10.734375 -4.84375 Z M 8.234375 -6.453125 C 8.203125 -7.265625 8.007812 -7.851562 7.65625 -8.21875 C 7.3125 -8.59375 6.800781 -8.78125 6.125 -8.78125 C 4.769531 -8.78125 3.972656 -8.003906 3.734375 -6.453125 Z M 8.234375 -6.453125 "/></g></g><g style="fill:#2c72d4;fill-opacity:1;"><g transform="translate(272.364161, 235.172967)"><path style="stroke:none" d="M 1.53125 0 L 1.53125 -10.65625 L 4.109375 -10.65625 L 4.109375 -9.21875 L 4.3125 -9.1875 C 4.65625 -9.757812 5.0625 -10.179688 5.53125 -10.453125 C 6 -10.722656 6.597656 -10.859375 7.328125 -10.859375 C 8.128906 -10.859375 8.773438 -10.695312 9.265625 -10.375 C 9.753906 -10.0625 10.109375 -9.597656 10.328125 -8.984375 L 10.53125 -8.984375 C 10.863281 -9.617188 11.285156 -10.085938 11.796875 -10.390625 C 12.316406 -10.703125 12.96875 -10.859375 13.75 -10.859375 C 15.957031 -10.859375 17.0625 -9.628906 17.0625 -7.171875 L 17.0625 0 L 14.375 0 L 14.375 -6.828125 C 14.375 -7.453125 14.25 -7.898438 14 -8.171875 C 13.757812 -8.453125 13.375 -8.59375 12.84375 -8.59375 C 11.375 -8.59375 10.640625 -7.613281 10.640625 -5.65625 L 10.640625 0 L 7.953125 0 L 7.953125 -6.828125 C 7.953125 -7.453125 7.828125 -7.898438 7.578125 -8.171875 C 7.335938 -8.453125 6.945312 -8.59375 6.40625 -8.59375 C 5.71875 -8.59375 5.179688 -8.363281 4.796875 -7.90625 C 4.410156 -7.445312 4.21875 -6.710938 4.21875 -5.703125 L 4.21875 0 Z M 1.53125 0 "/></g></g><g style="fill:#2c72d4;fill-opacity:1;"><g transform="translate(290.798017, 235.172967)"><path style="stroke:none" d="M 6.1875 0.203125 C 5.144531 0.203125 4.226562 -0.0078125 3.4375 -0.4375 C 2.65625 -0.863281 2.046875 -1.488281 1.609375 -2.3125 C 1.171875 -3.144531 0.953125 -4.148438 0.953125 -5.328125 C 0.953125 -6.492188 1.171875 -7.492188 1.609375 -8.328125 C 2.046875 -9.160156 2.65625 -9.789062 3.4375 -10.21875 C 4.226562 -10.644531 5.144531 -10.859375 6.1875 -10.859375 C 7.226562 -10.859375 8.144531 -10.644531 8.9375 -10.21875 C 9.726562 -9.789062 10.34375 -9.160156 10.78125 -8.328125 C 11.21875 -7.492188 11.4375 -6.492188 11.4375 -5.328125 C 11.4375 -4.148438 11.21875 -3.144531 10.78125 -2.3125 C 10.34375 -1.488281 9.726562 -0.863281 8.9375 -0.4375 C 8.144531 -0.0078125 7.226562 0.203125 6.1875 0.203125 Z M 6.1875 -2.0625 C 7.84375 -2.0625 8.671875 -3.148438 8.671875 -5.328125 C 8.671875 -6.453125 8.457031 -7.273438 8.03125 -7.796875 C 7.613281 -8.328125 7 -8.59375 6.1875 -8.59375 C 4.53125 -8.59375 3.703125 -7.503906 3.703125 -5.328125 C 3.703125 -3.148438 4.53125 -2.0625 6.1875 -2.0625 Z M 6.1875 -2.0625 "/></g></g><g style="fill:#2c72d4;fill-opacity:1;"><g transform="translate(302.980963, 235.172967)"><path style="stroke:none" d="M 7.328125 0 L 4.140625 0 L 0.203125 -10.65625 L 3 -10.65625 L 5.65625 -3.0625 L 5.875 -3.0625 L 8.53125 -10.65625 L 11.265625 -10.65625 Z M 7.328125 0 "/></g></g><g style="fill:#2c72d4;fill-opacity:1;"><g transform="translate(314.23642, 235.172967)"><path style="stroke:none" d="M 4.15625 0.203125 C 3.46875 0.203125 2.875 0.078125 2.375 -0.171875 C 1.875 -0.421875 1.488281 -0.789062 1.21875 -1.28125 C 0.945312 -1.769531 0.8125 -2.351562 0.8125 -3.03125 C 0.8125 -3.664062 0.945312 -4.195312 1.21875 -4.625 C 1.488281 -5.050781 1.90625 -5.398438 2.46875 -5.671875 C 3.039062 -5.941406 3.78125 -6.15625 4.6875 -6.3125 C 5.332031 -6.414062 5.816406 -6.523438 6.140625 -6.640625 C 6.472656 -6.765625 6.695312 -6.90625 6.8125 -7.0625 C 6.9375 -7.21875 7 -7.414062 7 -7.65625 C 7 -7.988281 6.878906 -8.242188 6.640625 -8.421875 C 6.398438 -8.609375 6.003906 -8.703125 5.453125 -8.703125 C 4.859375 -8.703125 4.289062 -8.566406 3.75 -8.296875 C 3.21875 -8.035156 2.753906 -7.691406 2.359375 -7.265625 L 2.171875 -7.265625 L 1.046875 -8.953125 C 1.585938 -9.554688 2.25 -10.023438 3.03125 -10.359375 C 3.8125 -10.691406 4.660156 -10.859375 5.578125 -10.859375 C 6.992188 -10.859375 8.015625 -10.554688 8.640625 -9.953125 C 9.273438 -9.359375 9.59375 -8.507812 9.59375 -7.40625 L 9.59375 -2.78125 C 9.59375 -2.300781 9.800781 -2.0625 10.21875 -2.0625 C 10.375 -2.0625 10.53125 -2.09375 10.6875 -2.15625 L 10.828125 -2.109375 L 11.015625 -0.25 C 10.867188 -0.15625 10.660156 -0.078125 10.390625 -0.015625 C 10.128906 0.046875 9.84375 0.078125 9.53125 0.078125 C 8.894531 0.078125 8.394531 -0.0390625 8.03125 -0.28125 C 7.675781 -0.53125 7.421875 -0.914062 7.265625 -1.4375 L 7.0625 -1.453125 C 6.539062 -0.347656 5.570312 0.203125 4.15625 0.203125 Z M 5 -1.796875 C 5.625 -1.796875 6.117188 -2.003906 6.484375 -2.421875 C 6.859375 -2.835938 7.046875 -3.414062 7.046875 -4.15625 L 7.046875 -5.234375 L 6.859375 -5.28125 C 6.691406 -5.144531 6.476562 -5.03125 6.21875 -4.9375 C 5.957031 -4.851562 5.582031 -4.769531 5.09375 -4.6875 C 4.519531 -4.59375 4.101562 -4.425781 3.84375 -4.1875 C 3.59375 -3.957031 3.46875 -3.628906 3.46875 -3.203125 C 3.46875 -2.742188 3.601562 -2.394531 3.875 -2.15625 C 4.144531 -1.914062 4.519531 -1.796875 5 -1.796875 Z M 5 -1.796875 "/></g></g><g style="fill:#2c72d4;fill-opacity:1;"><g transform="translate(325.472575, 235.172967)"><path style="stroke:none" d="M 4.421875 0.203125 C 3.460938 0.203125 2.726562 -0.0546875 2.21875 -0.578125 C 1.71875 -1.097656 1.46875 -1.882812 1.46875 -2.9375 L 1.46875 -14.9375 L 4.140625 -14.9375 L 4.140625 -3.046875 C 4.140625 -2.390625 4.410156 -2.0625 4.953125 -2.0625 C 5.109375 -2.0625 5.273438 -2.085938 5.453125 -2.140625 L 5.578125 -2.109375 L 5.828125 -0.046875 C 5.679688 0.0234375 5.484375 0.0820312 5.234375 0.125 C 4.992188 0.175781 4.722656 0.203125 4.421875 0.203125 Z M 4.421875 0.203125 "/></g></g></g></svg>