<?xml version="1.0" encoding="UTF-8"?>
<svg id="Layer_1" xmlns="http://www.w3.org/2000/svg" version="1.1" xmlns:xlink="http://www.w3.org/1999/xlink" viewBox="0 0 65 65">
  <!-- Generator: Adobe Illustrator 29.2.1, SVG Export Plug-In . SVG Version: 2.1.0 Build 116)  -->
  <defs>
    <style>
      .st0, .st1 {
        stroke-linecap: square;
      }

      .st0, .st1, .st2, .st3 {
        fill: none;
        stroke-linejoin: round;
        stroke-width: 2.2px;
      }

      .st0, .st3 {
        stroke: #1b2e5b;
      }

      .st1, .st2 {
        stroke: #fff;
      }

      .st2, .st3 {
        stroke-linecap: round;
      }

      .st4 {
        fill: #959caf;
        fill-opacity: .2;
      }
    </style>
  </defs>
  <path class="st4" d="M56.3,25.7h.9c1.9,0,3.5,1.6,3.5,3.5v29.6c0,.8-1,1.1-1.5.6l-7.3-7.4h-21.8c-1.9,0-3.5-1.6-3.5-3.5v-3.5"/>
  <path class="st1" d="M56.3,25.7h.9c1.9,0,3.5,1.6,3.5,3.5v29.6c0,.8-1,1.1-1.5.6l-7.3-7.4h-21.8c-1.9,0-3.5-1.6-3.5-3.5v-3.5"/>
  <path class="st2" d="M17,19.6h25.3"/>
  <path class="st2" d="M17,26.5h12.2"/>
  <path class="st0" d="M46.5,5.4H8.9c-1.8,0-3.5,1.6-3.5,3.5v39c0,.8,1,1.1,1.5.6l9.9-10h29.7c1.9,0,3.5-1.6,3.5-3.5V8.8c0-1.7-1.5-3.4-3.5-3.4Z"/>
  <path class="st0" d="M55.3,24.6h.9c1.9,0,3.5,1.6,3.5,3.5v29.6c0,.8-1,1.1-1.5.6l-7.3-7.4h-21.8c-1.9,0-3.5-1.6-3.5-3.5v-3.5"/>
  <path class="st3" d="M15.9,18.5h25.3"/>
  <path class="st3" d="M15.9,25.5h12.2"/>
</svg>